# xmcd CD database file
#
# Track frame offsets:
#	150
#	13706
#	26333
#	38625
#	49830
#	61878
#	73938
#	85984
#	99071
#	111108
#	123393
#	135936
#	147702
#	160911
#
# Disc length: 2347 seconds
#
# Revision: 0
# Processed by: cddbd v1.5.2PL0 Copyright (c) Steve Scherf et al.
# Submitted via: CDex 1.51
#
DISCID=b709290e
DTITLE=Joe Turner - Rock and Roll
DYEAR=1957
DGENRE=Blues
TTITLE0=Shake, Rattle and Roll
TTITLE1=Flip, Flop and Fly
TTITLE2=Feeling Happy
TTITLE3=Well All Right
TTITLE4=The Chicken And The Hawk
TTITLE5=Boogie Woogie Country Girl
TTITLE6=Honey Hush
TTITLE7=Corrine Corrina
TTITLE8=Midnight Special Train
TTITLE9=Hide And Seek
TTITLE10=Oke-She-Moke-She-Pop
TTITLE11=Crawdad Hole
TTITLE12=Sweet Sixteen
TTITLE13=Chains Of Love
EXTD=YEAR: 1957
EXTT0=
EXTT1=
EXTT2=
EXTT3=
EXTT4=
EXTT5=
EXTT6=
EXTT7=
EXTT8=
EXTT9=
EXTT10=
EXTT11=
EXTT12=
EXTT13=
PLAYORDER=
